#!OML:ASF I:\Actors\actors\Patient Classification 1\Patient 1\Session 1\Subject1.ASF
:FULLY-SPECIFIED
:DEGREES
1208
root 0.605911 17.4985 9.16357 20.2569 43.084 -5.22812
lowerback 9.02118 3.10533 -0.382472
upperback -7.98755 3.84968 -3.37881
thorax -13.641 1.6797 -4.32354
lowerneck -7.19805 4.33612 5.16665
upperneck 10.9188 5.0337 2.18154
head 4.53679 2.83019 0.142448
rclavicle -8.94531e-014 -5.64548e-014
rhumerus -50.2793 1.60329 -80.9679
rradius 147.433
rwrist -47.3366
rhand 68.2739 -66.4652
rfingers 7.12502
rthumb 74.2366 -4.01355
lclavicle -8.94531e-014 -5.64548e-014
lhumerus -50.622 -7.79417 82.9635
lradius 147.048
lwrist 55.6941
lhand 71.0823 -10.5053
lfingers 7.12502
lthumb 73.1851 -441.884
rfemur -3.62754 32.7529 24.0758
rtibia -2.85517
rfoot -61.8987 -56.024
rtoes 43.09
lfemur -26.4287 -36.6281 3.53712
ltibia -3.5787
lfoot 0.827396 13.2597
ltoes -25.1886
1209
root 0.597117 17.4932 9.17605 19.8905 42.8509 -4.75689
lowerback 8.45966 3.11819 -0.451143
upperback -8.16679 3.88219 -3.2889
thorax -13.5089 1.7151 -4.15936
lowerneck -7.59176 4.47545 5.19424
upperneck 12.3031 5.17176 2.17522
head 5.03422 2.93222 0.176314
rclavicle 1.55847e-013 -9.54166e-015
rhumerus -50.4817 0.798748 -80.9966
rradius 147.441
rwrist -47.5611
rhand 68.0489 -66.9095
rfingers 7.12502
rthumb 74.3026 -5.22124
lclavicle 1.55847e-013 -9.54166e-015
lhumerus -51.0992 -6.42657 83.3422
lradius 146.833
lwrist 55.5256
lhand 72.1987 -10.9433
lfingers 7.12502
lthumb 72.661 -445.532
rfemur -2.67988 32.7994 24.2163
rtibia -2.84068
rfoot -62.0684 -55.8611
rtoes 43.155
lfemur -25.9684 -38.3303 3.37487
ltibia -3.39808
lfoot 0.964103 14.9104
ltoes -25.3865
1210
root 0.605052 17.4758 9.19023 19.6392 42.3639 -4.05892
lowerback 7.73082 3.18623 -0.629081
upperback -8.25591 3.96859 -3.28743
thorax -13.1652 1.78745 -4.0211
lowerneck -8.03276 4.61812 5.24781
upperneck 13.6599 5.31788 2.12844
head 5.53744 3.03546 0.197034
rclavicle 5.58585e-014 3.18055e-015
rhumerus -50.7296 -0.0254893 -81.0462
rradius 147.451
rwrist -47.7635
rhand 67.8653 -67.824
rfingers 7.12502
rthumb 74.3544 -6.76363
lclavicle 5.58585e-014 3.18055e-015
lhumerus -51.4997 -5.26187 83.5955
lradius 146.718
lwrist 55.3512
lhand 72.8004 -11.3268
lfingers 7.12502
lthumb 72.3564 -447.562
rfemur -1.55454 32.3137 24.0953
rtibia -3.02778
rfoot -60.9129 -55.6873
rtoes 42.6973
lfemur -24.8592 -40.0766 2.45642
ltibia -3.49651
lfoot 1.01101 16.6299
ltoes -24.962
1211
root 0.585506 17.4816 9.19928 18.9511 42.8356 -4.66658
lowerback 7.07868 3.04599 0.203568
upperback -8.53882 3.94278 -2.97467
thorax -13.0532 1.7222 -4.10341
lowerneck -8.45553 4.71736 5.33015
upperneck 14.9547 5.39575 2.16527
head 6.02078 3.11162 0.234614
rclavicle 8.19987e-014 2.22639e-014
rhumerus -51.0395 -0.97743 -81.0836
rradius 147.444
rwrist -47.9262
rhand 67.7791 -68.1485
rfingers 7.12502
rthumb 74.3781 -7.38466
lclavicle 8.19987e-014 2.22639e-014
lhumerus -51.8674 -4.4988 83.7527
lradius 146.704
lwrist 55.3344
lhand 72.7607 -11.4468
lfingers 7.12502
lthumb 72.3769 -447.575
rfemur -1.25817 32.4751 25.0373
rtibia -2.84259
rfoot -61.7876 -55.7292
rtoes 42.8707
lfemur -25.8008 -41.6838 4.27145
ltibia -2.96241
lfoot 1.0583 18.1348
ltoes -25.1313
1212
root 0.570582 17.4804 9.20582 18.3909 42.9552 -4.87822
lowerback 6.53799 3.00086 0.661335
upperback -8.74502 3.97643 -2.74467
thorax -12.9394 1.71519 -4.08299
lowerneck -8.73613 4.82179 5.33701
upperneck 16.0397 5.50371 2.21607
head 6.41505 3.19456 0.285314
rclavicle 2.80286e-014 2.8625e-014
rhumerus -51.2383 -1.88011 -81.1924
rradius 147.396
rwrist -48.1482
rhand 67.6488 -68.0123
rfingers 7.12502
rthumb 74.413 -7.69779
lclavicle 2.80286e-014 2.8625e-014
lhumerus -52.351 -3.74233 83.8871
lradius 146.679
lwrist 55.4469
lhand 72.5972 -11.2661
lfingers 7.12502
lthumb 72.4609 -446.952
rfemur -0.756505 32.3784 25.6078
rtibia -2.77782
rfoot -61.8478 -55.7261
rtoes 42.7212
lfemur -26.1387 -43.2814 5.23893
ltibia -2.62186
lfoot 1.20292 19.6654
ltoes -25.4371
